<?xml version="1.0" encoding="UTF-8"?><svg id="Calque_2" xmlns="http://www.w3.org/2000/svg" viewBox="0 0 101.55 81.18"><defs><style>.cls-1{fill:none;}.cls-1,.cls-2,.cls-3{stroke-width:0px;}.cls-3{fill:#fff;}</style></defs><g id="Calque_1-2"><path class="cls-2" d="m35.41,60.21c0-.59-.21-1.05-.62-1.37s-1.17-.64-2.25-.97c-1.08-.33-1.95-.69-2.59-1.09-1.23-.77-1.84-1.78-1.84-3.01,0-1.08.44-1.98,1.33-2.68.88-.7,2.03-1.05,3.44-1.05.94,0,1.77.17,2.51.52.73.35,1.31.84,1.73,1.48.42.64.63,1.34.63,2.12h-2.33c0-.7-.22-1.25-.66-1.65-.44-.4-1.07-.6-1.89-.6-.76,0-1.36.16-1.78.49-.42.33-.63.78-.63,1.37,0,.49.23.9.68,1.23s1.21.65,2.26.96c1.05.31,1.89.67,2.52,1.06.63.4,1.1.85,1.4,1.37s.44,1.12.44,1.81c0,1.12-.43,2.01-1.29,2.68-.86.66-2.03.99-3.5.99-.97,0-1.87-.18-2.69-.54-.82-.36-1.45-.86-1.9-1.49-.45-.63-.68-1.37-.68-2.22h2.34c0,.76.25,1.36.76,1.78.5.42,1.23.63,2.17.63.81,0,1.43-.17,1.84-.5.41-.33.61-.77.61-1.31Z"/><path class="cls-2" d="m42.4,51.24v2.43h1.77v1.66h-1.77v5.58c0,.38.08.66.23.83s.42.25.81.25c.26,0,.52-.03.79-.09v1.74c-.51.14-1,.21-1.48.21-1.73,0-2.59-.95-2.59-2.86v-5.67h-1.65v-1.66h1.65v-2.43h2.25Z"/><path class="cls-2" d="m51.12,55.73c-.3-.05-.6-.07-.92-.07-1.03,0-1.72.39-2.08,1.18v6.84h-2.25v-10h2.15l.06,1.12c.54-.87,1.29-1.3,2.26-1.3.32,0,.59.04.8.13v2.11Z"/><path class="cls-2" d="m56.95,63.86c-1.42,0-2.58-.45-3.46-1.35-.88-.9-1.33-2.09-1.33-3.58v-.28c0-1,.19-1.89.58-2.68.38-.79.93-1.4,1.62-1.83.7-.44,1.47-.66,2.33-.66,1.36,0,2.42.43,3.16,1.3.74.87,1.11,2.1,1.11,3.69v.91h-6.54c.07.83.34,1.48.83,1.96.48.48,1.09.72,1.83.72,1.03,0,1.87-.42,2.52-1.25l1.21,1.16c-.4.6-.94,1.06-1.6,1.39s-1.42.5-2.25.5Zm-.27-8.57c-.62,0-1.11.22-1.49.65s-.62,1.03-.73,1.8h4.28v-.17c-.05-.75-.25-1.32-.6-1.71-.35-.39-.84-.58-1.46-.58Z"/><path class="cls-2" d="m67.11,63.86c-1.42,0-2.58-.45-3.46-1.35-.88-.9-1.33-2.09-1.33-3.58v-.28c0-1,.19-1.89.58-2.68.38-.79.93-1.4,1.62-1.83.7-.44,1.47-.66,2.33-.66,1.36,0,2.42.43,3.16,1.3.74.87,1.11,2.1,1.11,3.69v.91h-6.54c.07.83.34,1.48.83,1.96.48.48,1.09.72,1.83.72,1.03,0,1.87-.42,2.52-1.25l1.21,1.16c-.4.6-.94,1.06-1.6,1.39s-1.42.5-2.25.5Zm-.27-8.57c-.62,0-1.11.22-1.49.65s-.62,1.03-.73,1.8h4.28v-.17c-.05-.75-.25-1.32-.6-1.71-.35-.39-.84-.58-1.46-.58Z"/><path class="cls-2" d="m75.68,51.24v2.43h1.77v1.66h-1.77v5.58c0,.38.08.66.23.83s.42.25.81.25c.26,0,.52-.03.79-.09v1.74c-.51.14-1,.21-1.48.21-1.73,0-2.59-.95-2.59-2.86v-5.67h-1.65v-1.66h1.65v-2.43h2.25Z"/><path class="cls-2" d="m27.95,77.58l1.59-6.91h2.19l-2.73,10h-1.85l-2.15-6.87-2.11,6.87h-1.85l-2.74-10h2.19l1.62,6.83,2.05-6.83h1.69l2.08,6.91Z"/><path class="cls-2" d="m32.81,75.58c0-.98.19-1.86.58-2.65.39-.79.93-1.39,1.64-1.81.7-.42,1.51-.63,2.42-.63,1.35,0,2.45.43,3.29,1.3.84.87,1.3,2.02,1.36,3.46v.53c0,.99-.18,1.87-.56,2.64-.38.78-.92,1.38-1.63,1.8-.71.43-1.52.64-2.45.64-1.41,0-2.54-.47-3.39-1.41-.85-.94-1.27-2.19-1.27-3.76v-.11Zm2.25.19c0,1.03.21,1.83.64,2.42.43.58,1.02.87,1.78.87s1.35-.3,1.77-.89c.42-.59.63-1.46.63-2.6,0-1.01-.22-1.81-.65-2.4s-1.03-.89-1.77-.89-1.32.29-1.75.87c-.43.58-.65,1.45-.65,2.61Z"/><path class="cls-2" d="m49.25,72.73c-.3-.05-.6-.07-.92-.07-1.03,0-1.72.39-2.08,1.18v6.84h-2.25v-10h2.15l.06,1.12c.54-.87,1.29-1.3,2.26-1.3.32,0,.59.04.8.13v2.11Z"/><path class="cls-2" d="m53.92,76.39l-1,1.03v3.26h-2.25v-14.2h2.25v8.19l.7-.88,2.77-3.12h2.7l-3.72,4.17,4.12,5.83h-2.6l-2.97-4.29Z"/><path class="cls-2" d="m60.14,75.58c0-.98.19-1.86.58-2.65.39-.79.93-1.39,1.64-1.81.7-.42,1.51-.63,2.42-.63,1.35,0,2.45.43,3.29,1.3.84.87,1.3,2.02,1.36,3.46v.53c0,.99-.18,1.87-.56,2.64-.38.78-.92,1.38-1.63,1.8-.71.43-1.52.64-2.45.64-1.41,0-2.54-.47-3.39-1.41-.85-.94-1.27-2.19-1.27-3.76v-.11Zm2.25.19c0,1.03.21,1.83.64,2.42.43.58,1.02.87,1.78.87s1.35-.3,1.77-.89c.42-.59.63-1.46.63-2.6,0-1.01-.22-1.81-.65-2.4s-1.03-.89-1.77-.89-1.32.29-1.75.87c-.43.58-.65,1.45-.65,2.61Z"/><path class="cls-2" d="m77.4,79.7c-.66.78-1.6,1.17-2.81,1.17-1.08,0-1.91-.32-2.46-.95-.56-.63-.84-1.55-.84-2.75v-6.48h2.25v6.45c0,1.27.53,1.91,1.58,1.91s1.83-.39,2.21-1.17v-7.18h2.25v10h-2.12l-.06-.98Z"/><path class="cls-2" d="m84.68,68.24v2.43h1.77v1.66h-1.77v5.58c0,.38.08.66.23.83s.42.25.81.25c.26,0,.52-.03.79-.09v1.74c-.51.14-1,.21-1.48.21-1.73,0-2.59-.95-2.59-2.86v-5.67h-1.65v-1.66h1.65v-2.43h2.25Z"/><path class="cls-2" d="m78.81,40.84c.49.08.88.06,1.17.21.4.21.73.56,1.08.85-.38.27-.74.7-1.16.76-.88.12-1.8.15-2.68.02-.7-.11-1.35-.51-2.03-.79.6-.41,1.19-.83,2-1.39v-2.74h-17.22c-.04.93-.09,1.92-.14,3.01.41.11.71.11.93.26.43.28.8.64,1.2.97-.48.24-.95.63-1.45.68-.96.11-1.95.11-2.91,0-.51-.06-.99-.44-1.48-.67.47-.34.93-.68,1.42-1,.17-.11.4-.14.67-.23V1.69h-11.52c0,5.16-.03,10.29.05,15.41,0,.49.74.98,1.18,1.44,1.04,1.1,1.14,2.29.1,3.37-1.04,1.08-2.3,1.1-3.37.05-1.08-1.06-.88-2.18-.04-3.41.6-.88,1.2-1.98,1.22-2.99.13-4.6.06-9.2.06-13.93h-6.14c0,1.08,0,2.16,0,3.24,0,3.36,0,6.71,0,10.07,0,1.44-.21,2.85,1.34,3.95.47.33.36,2.46-.21,3.01-.58.55-2.3.55-3.08.07-1.23-.75-1.32-2.39-.14-3.24,1.37-.98,1.32-2.14,1.32-3.47-.02-4.46,0-8.93,0-13.61-2.05,0-4-.28-5.83.07-2.21.43-3.38,2.21-3.39,4.44-.05,11.48-.02,22.95-.02,34.58.38.11.75.13,1.03.31.42.28.78.66,1.16,1-.42.22-.83.59-1.28.63-.96.1-1.95.12-2.91,0-.57-.07-1.1-.47-1.65-.72.49-.32.97-.65,1.47-.95.18-.11.39-.14.75-.27,0-.8,0-1.61,0-2.42,0-10.36,0-20.73,0-31.09,0-4.96,2.27-7.21,7.28-7.22,12.03-.01,24.05-.02,36.08,0,4.8,0,7.11,2.35,7.11,7.18,0,10.21,0,20.43,0,30.64,0,.96,0,1.92,0,3Zm-1.62-28.99h-17.35c.06,1.23.11,2.29.16,3.31h17.19v-3.31Zm-17.16,13.73h17.13v-3.38h-17.13v3.38Zm0,1.72v3.33h17.13v-3.33h-17.13Zm17.18-20.67h-17.2v3.39h17.2v-3.39Zm-17.23,13.72h17.18v-3.39h-17.18v3.39Zm.04,15.59h17.16v-3.4h-17.16v3.4Zm-.06-31.16h17.02l.33-.62c-1.12-.84-2.2-2.34-3.36-2.41-4.62-.28-9.27-.12-13.98-.12v3.15Zm-11.09,15.61c-1.27-.87-1.91-1.64-2.55-1.63-.52,0-1.4.92-1.43,1.47-.03.51.81,1.47,1.33,1.52.63.06,1.33-.63,2.65-1.36Zm-9.43-2.61c-.82,1.28-1.57,1.94-1.56,2.59.01.52.94,1.39,1.49,1.4.52.02,1.46-.84,1.5-1.37.04-.64-.67-1.32-1.43-2.63Z"/><path class="cls-3" d="m77.19,11.84v3.31h-17.19c-.05-1.02-.1-2.08-.16-3.31h17.35Z"/><path class="cls-3" d="m60.02,25.58v-3.38h17.13v3.38h-17.13Z"/><path class="cls-3" d="m60.02,27.3h17.13v3.33h-17.13v-3.33Z"/><path class="cls-3" d="m77.19,6.63v3.39h-17.2v-3.39h17.2Z"/><path class="cls-3" d="m59.97,20.34v-3.39h17.18v3.39h-17.18Z"/><path class="cls-3" d="m60.01,35.93v-3.4h17.16v3.4h-17.16Z"/><path class="cls-3" d="m59.94,4.77V1.63c4.71,0,9.36-.17,13.98.12,1.17.07,2.24,1.57,3.36,2.41l-.33.62h-17.02Z"/><path class="cls-3" d="m48.85,20.39c-1.33.73-2.03,1.42-2.65,1.36-.52-.05-1.36-1.01-1.33-1.52.04-.55.91-1.47,1.43-1.47.63,0,1.28.77,2.55,1.63Z"/><path class="cls-3" d="m39.42,17.77c.76,1.3,1.47,1.99,1.43,2.63-.03.52-.98,1.38-1.5,1.37-.55-.02-1.48-.89-1.49-1.4-.02-.64.73-1.31,1.56-2.59Z"/><rect class="cls-1" y=".35" width="101.55" height="80.83"/></g></svg>