<?xml version="1.0" encoding="UTF-8"?><svg id="Calque_2" xmlns="http://www.w3.org/2000/svg" viewBox="0 0 101.55 82.07"><defs><style>.cls-1{fill:none;}.cls-1,.cls-2{stroke-width:0px;}</style></defs><g id="Calque_1-2"><path class="cls-2" d="m38.03,78.95l3.42-10.53h2.57l-4.85,13.46h-2.27l-4.83-13.46h2.56l3.38,10.53Z"/><path class="cls-2" d="m49.73,82.07c-1.42,0-2.58-.45-3.46-1.35-.88-.9-1.33-2.09-1.33-3.58v-.28c0-1,.19-1.89.58-2.68s.93-1.4,1.62-1.83c.7-.44,1.47-.66,2.33-.66,1.36,0,2.41.43,3.16,1.3.74.87,1.11,2.1,1.11,3.69v.91h-6.54c.07.83.34,1.48.83,1.96.48.48,1.09.72,1.83.72,1.03,0,1.87-.42,2.51-1.25l1.21,1.16c-.4.6-.94,1.06-1.6,1.39s-1.42.5-2.25.5Zm-.27-8.57c-.62,0-1.11.22-1.49.65-.38.43-.62,1.03-.73,1.8h4.28v-.17c-.05-.75-.25-1.32-.6-1.71-.35-.39-.84-.58-1.46-.58Zm.51-5.82h2.56l-2.56,2.8h-1.8s1.8-2.8,1.8-2.8Z"/><path class="cls-2" d="m57.87,81.88h-2.25v-14.2h2.25v14.2Z"/><path class="cls-2" d="m59.9,76.79c0-.98.19-1.86.58-2.65s.93-1.39,1.64-1.81,1.51-.63,2.42-.63c1.35,0,2.45.43,3.29,1.3.84.87,1.3,2.02,1.36,3.46v.53c0,.99-.18,1.87-.56,2.64-.38.78-.92,1.38-1.63,1.8-.71.43-1.52.64-2.45.64-1.41,0-2.54-.47-3.39-1.41-.85-.94-1.27-2.19-1.27-3.76v-.11Zm2.25.19c0,1.03.21,1.83.64,2.42.42.58,1.02.87,1.78.87s1.35-.3,1.77-.89.63-1.46.63-2.6c0-1.01-.22-1.81-.65-2.4s-1.02-.89-1.77-.89-1.32.29-1.75.87c-.43.58-.65,1.45-.65,2.61Z"/><path class="cls-2" d="m44.96,17.78c3.07,1.95,6.16,3.86,9.2,5.85,3.19,2.09,3.05,3.26.34,5.98-1.33,1.33-2.04,3.42-2.69,5.29-.56,1.62-.48,3.47-.98,5.13-.46,1.56-1.3,3-1.97,4.49-1.21-.58-2.42-1.16-3.9-1.87-.56.77-1.23,1.77-1.96,2.72-4.34,5.65-12.22,6.56-17.67,2.05-5.19-4.3-5.97-12.69-1.65-17.8,4.56-5.39,12.54-5.98,17.77-1.32.46.41.82,1.17,1.31,1.26,1.05.18,2.15.02,3.23,0-.15-1.03.06-2.39-.51-3.02-2.06-2.29-4.35-4.38-6.63-6.45-2.19-1.99-2.16-3.73.28-5.41,5.92-4.07,12.44-5.79,19.51-4.89,1.1.14,2.59,1.14,3.01,2.13,1.86,4.38,5.25,5.85,9.58,6.34,1.21.14,2.29,1.49,3.43,2.29-1.23.7-2.42,1.92-3.69,2.02-4.95.35-9.26-1.35-11.99-5.74-1.52-2.44-3.39-3.09-5.86-2.5-2.75.66-5.45,1.53-8.17,2.31,0,.39,0,.78.01,1.16Zm-11.65,30.01c6.77-.09,10.62-5.97,8.06-12.27-.22-.55-.03-1.28-.28-1.8-.7-1.45-1.22-3.24-2.37-4.18-3.19-2.61-8.05-2.44-11.29-.03-3.41,2.54-4.92,7.35-3.54,11.3,1.48,4.27,5.22,7.04,9.42,6.99Z"/><path class="cls-2" d="m80.98,37.84c-.07,6.96-5.65,12.54-12.47,12.46-6.83-.08-12.24-5.73-12.17-12.73.07-7.11,5.45-12.44,12.44-12.32,7.05.12,12.27,5.5,12.2,12.59Zm-2.51-.06c.05-5.53-4.22-9.97-9.66-10.06-5.47-.09-9.87,4.19-9.99,9.72-.12,5.62,4.37,10.35,9.83,10.35,5.3,0,9.76-4.56,9.81-10.01Z"/><path class="cls-2" d="m72.84,5.59c.09,3.28-2.12,5.71-5.33,5.85-3.25.14-5.66-2.05-5.83-5.32-.18-3.4,2.21-6.06,5.47-6.08,3.1-.02,5.6,2.42,5.68,5.55Z"/><rect class="cls-1" width="101.55" height="80.83"/></g></svg>