<?xml version="1.0" encoding="UTF-8"?><svg id="Calque_2" xmlns="http://www.w3.org/2000/svg" viewBox="0 0 101.55 84.82"><defs><style>.cls-1{fill:none;}.cls-1,.cls-2{stroke-width:0px;}</style></defs><g id="Calque_1-2"><path class="cls-2" d="m35.51,73.8l3.1-6.38h2.59l-4.51,8.51v4.96h-2.35v-4.96l-4.52-8.51h2.6l3.1,6.38Z"/><path class="cls-2" d="m41.42,75.79c0-.98.19-1.86.58-2.65.39-.79.93-1.39,1.64-1.81.7-.42,1.51-.63,2.42-.63,1.35,0,2.45.43,3.29,1.3.84.87,1.3,2.02,1.36,3.46v.53c0,.99-.18,1.87-.56,2.64-.38.78-.92,1.38-1.63,1.8-.71.42-1.52.64-2.45.64-1.41,0-2.54-.47-3.39-1.41-.85-.94-1.27-2.19-1.27-3.76v-.11Zm2.25.19c0,1.03.21,1.84.64,2.42.43.58,1.02.87,1.78.87s1.35-.3,1.77-.89c.42-.59.63-1.46.63-2.6,0-1.01-.22-1.81-.65-2.4s-1.02-.89-1.77-.89-1.32.29-1.75.87c-.43.58-.65,1.45-.65,2.61Z"/><path class="cls-2" d="m52.23,75.81c0-1.55.37-2.79,1.1-3.72s1.7-1.39,2.91-1.39c1.14,0,2.04.4,2.69,1.19l.1-1.01h2.03v9.7c0,1.31-.41,2.35-1.22,3.11-.82.76-1.92,1.14-3.31,1.14-.73,0-1.45-.15-2.15-.46-.7-.31-1.23-.7-1.6-1.2l1.06-1.35c.69.82,1.54,1.23,2.55,1.23.75,0,1.33-.2,1.77-.61.43-.4.65-1,.65-1.78v-.67c-.65.72-1.51,1.08-2.59,1.08-1.17,0-2.13-.46-2.87-1.4-.74-.93-1.11-2.22-1.11-3.87Zm2.24.19c0,1,.21,1.8.62,2.37s.98.86,1.71.86c.91,0,1.58-.39,2.02-1.17v-4.4c-.42-.76-1.09-1.14-2-1.14-.74,0-1.31.29-1.72.88s-.62,1.45-.62,2.59Z"/><path class="cls-2" d="m69.34,80.88c-.1-.19-.18-.5-.26-.93-.71.75-1.59,1.12-2.63,1.12s-1.83-.29-2.46-.86c-.63-.57-.95-1.28-.95-2.13,0-1.07.4-1.88,1.19-2.46s1.92-.86,3.4-.86h1.38v-.66c0-.52-.15-.93-.44-1.24-.29-.31-.73-.47-1.32-.47-.51,0-.93.13-1.26.38-.33.26-.49.58-.49.98h-2.25c0-.55.18-1.06.54-1.54.36-.48.86-.85,1.48-1.12.63-.27,1.32-.41,2.09-.41,1.17,0,2.11.29,2.8.88s1.05,1.42,1.07,2.48v4.51c0,.9.13,1.62.38,2.16v.16h-2.29Zm-2.47-1.62c.44,0,.86-.11,1.25-.32s.69-.5.88-.87v-1.89h-1.21c-.83,0-1.46.15-1.88.44-.42.29-.63.7-.63,1.23,0,.43.14.78.43,1.03.29.26.67.38,1.15.38Z"/><path class="cls-2" d="m50.18,51.01c1.54-3.02-.93-4.39-4.83-5.12-2.47-.47-4.98-.94-7.3-1.71-1.35-.45-3.19-1.43-3.3-2.28-.11-.87,1.55-1.93,2.6-2.8.59-.49,1.5-.74,2.28-1.09,7.52-3.42,9-5.75,7.16-12.21-.28-.98-1.94-1.75-3-2.58-3.5-2.74-7.35-5.27-10.42-8.26-1.99-1.93-1.27-4.09,2.05-5.37,2.81-1.08,5.48-2.36,8.2-3.58,2.29-1.02,4.91-1.75,4.99-4.39.02-.58,1.49-1.42,2.47-1.59.72-.13,2.41.55,2.48.98.71,4.41,5.87,5.18,9.65,6.89,8.28,3.75,8.88,5.95,2.18,11.39-1.72,1.4-3.76,2.79-6.03,3.51-3.47,1.1-4.18,2.93-4.04,5.45.39,6.76.72,13.52.94,20.29.06,1.71.03,3.54-.7,5.1-.53,1.14-2.3,1.94-3.52,2.88-.71-1.12-1.52-2.2-2.07-3.36-.23-.49.09-1.13.21-2.14Zm5.64-41.19c3.23,3.34,1.62,6.34-.9,9.32.37.17.75.34,1.12.51,2.54-1.85,5.08-3.7,8.24-6.01-3.5-1.58-5.98-2.7-8.46-3.82Zm-8.56.32c-.35-.2-.7-.4-1.05-.6-2.25,1.54-4.5,3.08-6.76,4.62,2.3,1.81,4.59,3.62,6.89,5.43.42-.25.84-.51,1.26-.76-3.54-2.81-3.24-5.71-.35-8.69Z"/><rect class="cls-1" width="101.55" height="80.83"/></g></svg>