<?xml version="1.0" encoding="UTF-8"?><svg id="Calque_2" xmlns="http://www.w3.org/2000/svg" viewBox="0 0 22.53 29.05"><defs><style>.cls-1{stroke-width:0px;}</style></defs><g id="Calque_1-2"><g id="Illustration_3"><path class="cls-1" d="m11.27,28.05c-.24,0-.46-.1-.63-.29-.1-.11-9.64-10.81-9.64-16.49S5.61,1,11.27,1s10.27,4.61,10.27,10.27-9.54,16.39-9.64,16.49c-.17.19-.39.29-.63.29Zm0-22.67c-3.24,0-5.88,2.64-5.88,5.88s2.64,5.88,5.88,5.88,5.88-2.64,5.88-5.88-2.64-5.88-5.88-5.88Z"/><path class="cls-1" d="m11.27,1.5c5.38,0,9.77,4.38,9.77,9.77,0,4.56-6.86,13.21-9.51,16.16-.08.08-.16.13-.26.13s-.18-.04-.26-.13C8.36,24.48,1.5,15.82,1.5,11.27,1.5,5.88,5.88,1.5,11.27,1.5m0,16.15c3.52,0,6.38-2.86,6.38-6.38s-2.86-6.38-6.38-6.38-6.38,2.86-6.38,6.38,2.86,6.38,6.38,6.38M11.27.5C5.32.5.5,5.32.5,11.27s9.76,16.83,9.76,16.83c.28.31.64.46,1,.46s.73-.15,1-.46c0,0,9.76-10.88,9.76-16.83S17.21.5,11.27.5h0Zm0,16.15c-2.97,0-5.38-2.41-5.38-5.38s2.41-5.38,5.38-5.38,5.38,2.41,5.38,5.38-2.41,5.38-5.38,5.38h0Z"/></g></g></svg>