<?xml version="1.0" encoding="UTF-8"?><svg id="Calque_1" xmlns="http://www.w3.org/2000/svg" viewBox="0 0 1.52 1.72"><defs><style>.cls-1{stroke-width:0px;}</style></defs><path class="cls-1" d="m0,.4c.02-.06.05-.12.11-.16.03-.02.06-.03.11-.04,0,.04,0,.07,0,.09,0,.09.06.15.14.15.08,0,.14-.06.14-.15,0-.03,0-.06,0-.09h.54s0,.06,0,.09c0,.09.06.15.14.15.08,0,.14-.06.14-.15,0-.03,0-.06,0-.08.09,0,.19.08.21.18,0,.02,0,.05,0,.07,0,.34,0,.68,0,1.02,0,.15-.1.25-.25.25-.33,0-.67,0-1,0-.14,0-.21-.05-.26-.18,0,0,0,0,0,0,0-.38,0-.75,0-1.13Zm1.44.36H.08s0,.03,0,.04c0,.22,0,.45,0,.67,0,.11.06.18.18.18.33,0,.67,0,1,0,.12,0,.18-.06.18-.18,0-.22,0-.45,0-.67,0-.01,0-.02,0-.04Z"/><path class="cls-1" d="m.25.2s0-.07,0-.1C.26.04.3,0,.35,0c.05,0,.1.04.1.1,0,.07,0,.14,0,.21,0,.06-.04.1-.1.1-.05,0-.1-.04-.1-.1,0-.03,0-.07,0-.1h0Z"/><path class="cls-1" d="m1.26.2s0,.07,0,.1c0,.06-.04.1-.1.1-.06,0-.1-.04-.1-.1,0-.07,0-.13,0-.2,0-.06.04-.1.1-.1.06,0,.1.04.1.1,0,.03,0,.07,0,.1h0Z"/><path class="cls-1" d="m.98,1.27h-.16v-.16c.05,0,.1,0,.15,0,0,0,.01,0,.01.01,0,.05,0,.1,0,.15Z"/><path class="cls-1" d="m.42,1.11v.16h-.16v-.16h.16Z"/><path class="cls-1" d="m.7,1.11v.16h-.16v-.16h.16Z"/><path class="cls-1" d="m.98,1.04h-.16v-.16h.16v.16Z"/><path class="cls-1" d="m.25,1.34h.16v.16h-.16v-.16Z"/><path class="cls-1" d="m1.27,1.28h-.16v-.16h.16v.16Z"/><path class="cls-1" d="m.25,1.04v-.16h.16v.16h-.16Z"/><path class="cls-1" d="m.7,1.35v.16h-.16v-.16h.16Z"/><path class="cls-1" d="m1.27.88v.16h-.16v-.16h.16Z"/><path class="cls-1" d="m.54.88h.16v.16h-.16v-.16Z"/></svg>