<?xml version="1.0" encoding="UTF-8"?><svg id="Calque_2" xmlns="http://www.w3.org/2000/svg" viewBox="0 0 101.55 83.38"><defs><style>.cls-1{fill:none;}.cls-1,.cls-2{stroke-width:0px;}</style></defs><g id="Calque_1-2"><path class="cls-2" d="m51.42,25.52c-3.86,5.69-3.74,6.13,1.56,8.31,1.24.51,2.49,1.03,3.71,1.6,2.49,1.17,2.82,3.06,1.25,5.1-2.1,2.72-4.28,5.42-6.73,7.8-.79.76-2.57.49-3.9.7-.1-1.44-.68-3.08-.18-4.26.77-1.81,2.29-3.29,3.46-4.88-3.64-3.53-5.62-2.21-8.19.99-3.61,4.49-7.94,8.44-12.23,12.33-.86.78-2.9.26-4.4.34.29-1.56.05-3.56.95-4.59,4.16-4.84,9.11-9.06,12.85-14.18,3.01-4.12,4.69-9.21,7.04-14.04-3.28-1.79-5.33-1.67-6.58,1.51-.6,1.53-1.01,3.29-2.06,4.44-.92.99-2.62,1.26-3.98,1.84-.41-1.28-1.42-2.73-1.12-3.8.82-2.85,1.93-5.71,3.48-8.23.79-1.29,2.64-2.26,4.2-2.67,1.83-.48,3.9,0,5.81-.29,5.13-.79,8.3,1.03,9.54,6.24.71,2.98,2.59,3.87,5.78,3,2.44-.66,6.39-2.81,7.22,1.25.87,4.29-3.68,3.85-6.34,4.26-3.86.59-8.34,3.34-11.12-2.75Z"/><path class="cls-2" d="m61.93,6.18c.03,3.36-2.92,6.26-6.34,6.24-3.17-.02-6.04-2.78-6.18-5.96C49.25,3.09,52.11.07,55.52,0c3.43-.07,6.38,2.78,6.41,6.18Z"/><path class="cls-2" d="m28.89,78.81c-.14,1.44-.67,2.56-1.59,3.36-.92.8-2.15,1.21-3.69,1.21-1.07,0-2.02-.25-2.83-.76s-1.45-1.23-1.89-2.17c-.44-.94-.67-2.02-.69-3.26v-1.26c0-1.27.22-2.39.67-3.36s1.1-1.71,1.94-2.24c.84-.52,1.81-.79,2.92-.79,1.49,0,2.68.4,3.59,1.21s1.43,1.94,1.58,3.42h-2.33c-.11-.97-.39-1.67-.85-2.09-.45-.43-1.12-.64-1.99-.64-1.02,0-1.8.37-2.34,1.12-.55.74-.82,1.83-.84,3.27v1.19c0,1.46.26,2.57.78,3.33.52.77,1.28,1.15,2.29,1.15.92,0,1.61-.21,2.07-.62.46-.41.75-1.1.88-2.06h2.33Z"/><path class="cls-2" d="m30.35,78.1c0-.98.19-1.86.58-2.65.39-.79.93-1.39,1.64-1.81.7-.42,1.51-.63,2.42-.63,1.35,0,2.45.43,3.29,1.3.84.87,1.3,2.02,1.36,3.46v.53c0,.99-.18,1.87-.56,2.64-.38.78-.92,1.38-1.63,1.8-.71.42-1.52.64-2.45.64-1.41,0-2.54-.47-3.39-1.41-.85-.94-1.27-2.19-1.27-3.76v-.11Zm2.25.19c0,1.03.21,1.84.64,2.42.43.58,1.02.87,1.78.87s1.35-.3,1.77-.89c.42-.59.63-1.46.63-2.6,0-1.01-.22-1.81-.65-2.4s-1.02-.89-1.77-.89-1.32.29-1.75.87c-.43.58-.65,1.45-.65,2.61Z"/><path class="cls-2" d="m47.61,82.22c-.66.78-1.6,1.17-2.81,1.17-1.09,0-1.91-.32-2.46-.95-.56-.63-.84-1.55-.84-2.76v-6.48h2.25v6.46c0,1.27.53,1.9,1.58,1.9s1.83-.39,2.21-1.17v-7.19h2.25v10.01h-2.12l-.06-.98Z"/><path class="cls-2" d="m57.31,75.24c-.3-.05-.6-.07-.92-.07-1.03,0-1.72.39-2.08,1.18v6.84h-2.25v-10.01h2.15l.05,1.12c.54-.87,1.29-1.3,2.26-1.3.32,0,.59.04.8.13v2.11Z"/><path class="cls-2" d="m64.34,80.48c0-.4-.17-.71-.49-.92-.33-.21-.88-.39-1.64-.55-.76-.16-1.4-.36-1.91-.61-1.12-.54-1.68-1.33-1.68-2.36,0-.86.36-1.58,1.09-2.16.73-.58,1.65-.87,2.77-.87,1.2,0,2.16.3,2.9.89s1.1,1.36,1.1,2.3h-2.25c0-.43-.16-.79-.48-1.08-.32-.29-.75-.43-1.28-.43-.49,0-.9.11-1.21.34-.31.23-.47.53-.47.92,0,.35.15.61.43.8.29.19.88.38,1.76.58.88.19,1.57.42,2.08.69.5.27.88.59,1.12.97s.37.83.37,1.37c0,.9-.37,1.63-1.12,2.19-.75.56-1.72.84-2.93.84-.82,0-1.55-.15-2.19-.44-.64-.3-1.14-.7-1.5-1.22-.36-.52-.54-1.08-.54-1.67h2.18c.03.53.23.94.6,1.22.37.29.86.43,1.47.43s1.04-.11,1.35-.34c.31-.22.46-.52.46-.88Z"/><path class="cls-2" d="m72.91,83.38c-1.42,0-2.58-.45-3.46-1.35-.88-.9-1.33-2.09-1.33-3.58v-.28c0-1,.19-1.89.58-2.68.39-.79.93-1.4,1.62-1.84.7-.44,1.47-.66,2.33-.66,1.36,0,2.42.43,3.16,1.3.74.87,1.12,2.1,1.12,3.69v.91h-6.54c.07.83.34,1.48.83,1.96.48.48,1.09.72,1.83.72,1.03,0,1.87-.42,2.52-1.25l1.21,1.16c-.4.6-.94,1.06-1.6,1.39-.67.33-1.42.49-2.25.49Zm-.27-8.57c-.62,0-1.12.22-1.49.65s-.62,1.03-.73,1.8h4.28v-.17c-.05-.75-.25-1.32-.6-1.71-.35-.38-.84-.58-1.46-.58Z"/><rect class="cls-1" y="1.31" width="101.55" height="80.83"/></g></svg>