<?xml version="1.0" encoding="UTF-8"?><svg id="Calque_2" xmlns="http://www.w3.org/2000/svg" viewBox="0 0 101.55 82.07"><defs><style>.cls-1{fill:none;}.cls-1,.cls-2{stroke-width:0px;}</style></defs><g id="Calque_1-2"><path class="cls-2" d="m26.61,81.88h-2.34l-6-9.55v9.55h-2.34v-13.46h2.34l6.02,9.59v-9.59h2.32v13.46Z"/><path class="cls-2" d="m35.13,81.88c-.1-.19-.19-.5-.26-.93-.72.75-1.59,1.12-2.63,1.12s-1.82-.29-2.46-.86c-.64-.57-.95-1.28-.95-2.13,0-1.07.4-1.88,1.19-2.46s1.92-.86,3.4-.86h1.38v-.66c0-.52-.15-.93-.43-1.24-.29-.31-.73-.47-1.32-.47-.51,0-.93.13-1.26.38-.33.26-.49.58-.49.98h-2.25c0-.55.18-1.06.55-1.54.36-.48.86-.85,1.48-1.12.63-.27,1.32-.41,2.09-.41,1.17,0,2.11.29,2.8.88.7.59,1.05,1.42,1.07,2.48v4.51c0,.9.13,1.62.38,2.15v.16h-2.29Zm-2.47-1.62c.44,0,.86-.11,1.25-.32.39-.22.69-.51.88-.87v-1.89h-1.21c-.83,0-1.46.14-1.88.43s-.63.7-.63,1.23c0,.43.14.78.43,1.03.29.26.67.38,1.15.38Z"/><path class="cls-2" d="m42.21,69.45v2.43h1.77v1.66h-1.77v5.58c0,.38.08.66.23.83s.42.25.81.25c.26,0,.52-.03.79-.09v1.74c-.51.14-1,.21-1.48.21-1.73,0-2.59-.95-2.59-2.86v-5.67h-1.65v-1.66h1.65v-2.43h2.25Z"/><path class="cls-2" d="m51.67,81.88c-.1-.19-.19-.5-.26-.93-.72.75-1.59,1.12-2.63,1.12s-1.82-.29-2.46-.86c-.64-.57-.95-1.28-.95-2.13,0-1.07.4-1.88,1.19-2.46s1.92-.86,3.4-.86h1.38v-.66c0-.52-.15-.93-.43-1.24-.29-.31-.73-.47-1.32-.47-.51,0-.93.13-1.26.38-.33.26-.49.58-.49.98h-2.25c0-.55.18-1.06.55-1.54.36-.48.86-.85,1.48-1.12.63-.27,1.32-.41,2.09-.41,1.17,0,2.11.29,2.8.88.7.59,1.05,1.42,1.07,2.48v4.51c0,.9.13,1.62.38,2.15v.16h-2.29Zm-2.47-1.62c.44,0,.86-.11,1.25-.32.39-.22.69-.51.88-.87v-1.89h-1.21c-.83,0-1.46.14-1.88.43s-.63.7-.63,1.23c0,.43.14.78.43,1.03.29.26.67.38,1.15.38Z"/><path class="cls-2" d="m58.76,69.45v2.43h1.77v1.66h-1.77v5.58c0,.38.08.66.23.83s.42.25.81.25c.26,0,.52-.03.79-.09v1.74c-.51.14-1,.21-1.48.21-1.73,0-2.59-.95-2.59-2.86v-5.67h-1.65v-1.66h1.65v-2.43h2.25Z"/><path class="cls-2" d="m62.24,69.28c0-.35.11-.63.33-.86.22-.23.53-.34.94-.34s.72.11.94.34c.22.23.33.51.33.86s-.11.62-.33.85c-.22.23-.54.34-.94.34s-.72-.11-.94-.34c-.22-.22-.33-.51-.33-.85Zm2.39,12.6h-2.25v-10h2.25v10Z"/><path class="cls-2" d="m66.66,76.79c0-.98.19-1.86.58-2.65.39-.79.93-1.39,1.64-1.81.7-.42,1.51-.63,2.42-.63,1.35,0,2.45.43,3.29,1.3.84.87,1.3,2.02,1.36,3.46v.53c0,.99-.18,1.87-.56,2.64-.38.78-.92,1.38-1.63,1.8-.71.43-1.52.64-2.45.64-1.41,0-2.54-.47-3.39-1.41-.85-.94-1.27-2.19-1.27-3.76v-.11Zm2.25.19c0,1.03.21,1.83.64,2.42.43.58,1.02.87,1.78.87s1.35-.3,1.77-.89c.42-.59.63-1.46.63-2.6,0-1.01-.22-1.81-.65-2.4s-1.03-.89-1.77-.89-1.32.29-1.75.87c-.43.58-.65,1.45-.65,2.61Z"/><path class="cls-2" d="m79.94,71.88l.06,1.16c.74-.89,1.71-1.34,2.91-1.34,2.08,0,3.14,1.19,3.18,3.58v6.61h-2.25v-6.48c0-.63-.14-1.1-.41-1.41-.27-.3-.72-.46-1.35-.46-.91,0-1.58.41-2.02,1.23v7.12h-2.25v-10h2.12Z"/><path class="cls-2" d="m45.83,34.24c-2.61.33-5.3.36-7.79,1.07-2.11.6-3.91,2.27-6.02,2.9-1.1.33-2.57-.55-3.87-.89.43-1.15.54-2.68,1.36-3.4,8.45-7.41,21.02-7.05,29.17,1.04,2.26,2.25,4.5,2.92,7.51,3.02,3.71.13,7.41.79,11.07,1.51,1.17.23,2.17,1.36,2.82,3.07-.96,0-1.99.22-2.88-.03-9.7-2.79-19.14-1.87-28.68,1.13-8,2.52-16.26,2.26-24.38.16-1.35-.35-2.54-1.31-3.68-2.67,9.02-.42,19.08,5.42,25.74-5.03-.11-.63-.22-1.25-.33-1.88Z"/><path class="cls-2" d="m20.79,47.93c1.58-.8,1.89-1.1,2.09-1.04,11.22,3.22,21.99,1.27,33.15-1.31,6.99-1.62,14.77.06,22.19.49,1.09.06,2.11,1.38,3.16,2.12-.23.4-.45.8-.68,1.19-3.16-.56-6.34-1.65-9.49-1.56-6.22.17-12.6.25-18.59,1.72-9.37,2.3-18.55,3.36-27.91.62-1.16-.34-2.17-1.22-3.92-2.23Z"/><path class="cls-2" d="m64.87,22.58c3.51.04,6.17,2.84,6.04,6.36-.13,3.56-2.8,5.93-6.52,5.8-3.38-.12-5.85-2.69-5.83-6.05.03-3.55,2.71-6.15,6.31-6.11Z"/><rect class="cls-1" width="101.55" height="80.83"/></g></svg>