<?xml version="1.0" encoding="UTF-8"?><svg id="Calque_2" xmlns="http://www.w3.org/2000/svg" viewBox="0 0 101.55 82.1"><defs><style>.cls-1{fill:none;}.cls-1,.cls-2{stroke-width:0px;}</style></defs><g id="Calque_1-2"><path class="cls-2" d="m11.69,77.53c-.14,1.44-.67,2.56-1.59,3.36s-2.15,1.21-3.69,1.21c-1.07,0-2.02-.25-2.83-.76-.82-.51-1.45-1.23-1.89-2.17s-.67-2.03-.69-3.26v-1.26c0-1.27.22-2.39.67-3.36s1.1-1.71,1.94-2.24c.84-.52,1.81-.79,2.92-.79,1.49,0,2.68.4,3.59,1.21.91.8,1.43,1.94,1.58,3.42h-2.33c-.11-.97-.39-1.67-.85-2.09s-1.12-.64-1.99-.64c-1.02,0-1.8.37-2.34,1.12-.55.74-.82,1.83-.84,3.27v1.19c0,1.46.26,2.57.78,3.33.52.76,1.28,1.15,2.29,1.15.92,0,1.61-.21,2.07-.62.46-.41.75-1.1.88-2.06h2.33Z"/><path class="cls-2" d="m19.54,81.92c-.1-.19-.19-.5-.26-.93-.72.75-1.59,1.12-2.63,1.12s-1.82-.29-2.46-.86c-.64-.57-.95-1.28-.95-2.13,0-1.07.4-1.88,1.19-2.46s1.92-.86,3.4-.86h1.38v-.66c0-.52-.15-.93-.43-1.24-.29-.31-.73-.47-1.32-.47-.51,0-.93.13-1.26.38-.33.26-.49.58-.49.98h-2.25c0-.55.18-1.06.55-1.54.36-.48.86-.85,1.48-1.12.63-.27,1.32-.41,2.09-.41,1.17,0,2.11.29,2.8.88.7.59,1.05,1.42,1.07,2.48v4.51c0,.9.13,1.62.38,2.15v.16h-2.29Zm-2.47-1.62c.44,0,.86-.11,1.25-.32.39-.22.69-.51.88-.87v-1.89h-1.21c-.83,0-1.46.14-1.88.43s-.63.7-.63,1.23c0,.43.14.78.43,1.03.29.26.67.38,1.15.38Z"/><path class="cls-2" d="m26.19,81.92h-2.25v-14.2h2.25v14.2Z"/><path class="cls-2" d="m31.03,81.92h-2.25v-14.2h2.25v14.2Z"/><path class="cls-2" d="m33.48,69.31c0-.35.11-.63.33-.86.22-.23.53-.34.94-.34s.72.11.94.34c.22.23.33.51.33.86s-.11.62-.33.85c-.22.23-.54.34-.94.34s-.72-.11-.94-.34c-.22-.22-.33-.51-.33-.85Zm2.39,12.6h-2.25v-10h2.25v10Z"/><path class="cls-2" d="m43.92,79.2c0-.4-.17-.71-.5-.92-.33-.21-.88-.39-1.64-.55-.76-.16-1.4-.36-1.92-.61-1.12-.54-1.68-1.33-1.68-2.36,0-.86.36-1.58,1.09-2.16.73-.58,1.65-.87,2.77-.87,1.2,0,2.16.3,2.9.89.74.59,1.1,1.36,1.1,2.3h-2.25c0-.43-.16-.79-.48-1.08s-.75-.43-1.28-.43c-.49,0-.9.11-1.21.34-.31.23-.47.53-.47.92,0,.34.14.61.43.8.29.19.88.38,1.76.58.88.19,1.57.43,2.08.69.5.27.88.59,1.12.97s.37.83.37,1.37c0,.9-.37,1.63-1.12,2.19-.75.56-1.72.84-2.93.84-.82,0-1.55-.15-2.19-.44-.64-.3-1.14-.7-1.5-1.22s-.54-1.08-.54-1.67h2.18c.03.53.23.94.6,1.23.37.29.86.43,1.47.43s1.04-.11,1.35-.34c.31-.23.46-.52.46-.88Z"/><path class="cls-2" d="m50.9,69.48v2.43h1.77v1.66h-1.77v5.58c0,.38.08.66.23.83s.42.25.81.25c.26,0,.52-.03.79-.09v1.74c-.51.14-1,.21-1.48.21-1.73,0-2.59-.95-2.59-2.86v-5.67h-1.65v-1.66h1.65v-2.43h2.25Z"/><path class="cls-2" d="m56.6,73c.73-.85,1.66-1.28,2.78-1.28,2.13,0,3.21,1.22,3.25,3.65v6.54h-2.25v-6.45c0-.69-.15-1.18-.45-1.47s-.74-.43-1.32-.43c-.9,0-1.57.4-2.02,1.2v7.15h-2.25v-14.2h2.25v5.29Z"/><path class="cls-2" d="m69.3,82.1c-1.42,0-2.58-.45-3.46-1.35-.88-.9-1.33-2.09-1.33-3.58v-.28c0-1,.19-1.89.58-2.68.38-.79.93-1.4,1.62-1.83.7-.44,1.47-.66,2.33-.66,1.36,0,2.42.43,3.16,1.3.74.87,1.11,2.1,1.11,3.69v.91h-6.54c.07.83.34,1.48.83,1.96.48.48,1.09.72,1.83.72,1.03,0,1.87-.42,2.52-1.25l1.21,1.16c-.4.6-.94,1.06-1.6,1.39s-1.42.5-2.25.5Zm-.27-8.57c-.62,0-1.11.22-1.49.65s-.62,1.03-.73,1.8h4.28v-.17c-.05-.75-.25-1.32-.6-1.71-.35-.39-.84-.58-1.46-.58Zm.51-5.82h2.56l-2.56,2.8h-1.8s1.8-2.8,1.8-2.8Z"/><path class="cls-2" d="m77.15,71.91l.06,1.16c.74-.89,1.71-1.34,2.91-1.34,2.08,0,3.14,1.19,3.18,3.58v6.61h-2.25v-6.48c0-.63-.14-1.1-.41-1.41-.27-.3-.72-.46-1.35-.46-.91,0-1.58.41-2.02,1.23v7.12h-2.25v-10h2.12Z"/><path class="cls-2" d="m85.6,69.31c0-.35.11-.63.33-.86.22-.23.53-.34.94-.34s.72.11.94.34c.22.23.33.51.33.86s-.11.62-.33.85c-.22.23-.54.34-.94.34s-.72-.11-.94-.34c-.22-.22-.33-.51-.33-.85Zm2.39,12.6h-2.25v-10h2.25v10Z"/><path class="cls-2" d="m94.83,82.1c-1.42,0-2.58-.45-3.46-1.35-.88-.9-1.33-2.09-1.33-3.58v-.28c0-1,.19-1.89.58-2.68.38-.79.93-1.4,1.62-1.83.7-.44,1.47-.66,2.33-.66,1.36,0,2.42.43,3.16,1.3.74.87,1.11,2.1,1.11,3.69v.91h-6.54c.07.83.34,1.48.83,1.96.48.48,1.09.72,1.83.72,1.03,0,1.87-.42,2.52-1.25l1.21,1.16c-.4.6-.94,1.06-1.6,1.39s-1.42.5-2.25.5Zm-.27-8.57c-.62,0-1.11.22-1.49.65s-.62,1.03-.73,1.8h4.28v-.17c-.05-.75-.25-1.32-.6-1.71-.35-.39-.84-.58-1.46-.58Z"/><path class="cls-2" d="m48.11,36.74c-2.41,3.77-4.38,7.01-6.51,10.13-1.09,1.6-1.94,4.69-4.49,3.15-2.84-1.71-.15-3.86.76-5.63.89-1.75,1.95-3.48,3.24-4.96,3.95-4.53,4.3-9.89,3.74-15.43-.12-1.21-.96-3.06-1.87-3.35-6.47-2.03-7.29-7.4-8.2-12.86-.21-1.28-.95-2.47-1.45-3.7-.43.09-.85.19-1.28.28-.18,1.4-.5,2.81-.5,4.21-.04,14.56-.02,29.11-.06,43.67,0,1.39-.35,2.78-.53,4.17-.39,0-.79,0-1.18,0-.18-1.26-.52-2.52-.52-3.79-.04-14.44,0-28.88-.04-43.32,0-2.29.88-5.21-3.07-5.33-.26,0-.78-.74-.7-1,.13-.46.55-.98.99-1.19,1.31-.62,2.68-1.1,4.19-1.71,3.32,2.38,32,2.26,35.18-.09,1.83.86,3.63,1.71,5.36,2.53-.06.44-.07.85-.13.86-4.4.63-3.85,3.91-3.85,6.99.03,13.98.03,27.95-.01,41.93,0,1.37-.37,2.75-.57,4.12-.4,0-.8,0-1.19-.01-.18-1.26-.51-2.53-.51-3.79-.04-14.67-.03-29.35-.04-44.02,0-.7.17-1.46-.05-2.08-.28-.77-.89-1.42-1.35-2.12-.49.55-1.26,1.03-1.44,1.67-.61,2.24-1.15,4.52-1.48,6.81-.44,3.03-1.8,5.2-4.77,6.26-3.44,1.23-4.29,3.68-4.38,7.29-.11,4.89.83,9.11,3.83,12.99,1.63,2.11,3.1,4.4,4.24,6.8.5,1.06,0,2.59-.05,3.91-1.23-.56-2.86-.8-3.6-1.74-1.93-2.46-3.47-5.23-5.18-7.87-.63-.97-1.28-1.92-2.51-3.77Zm.05-32.54s0-.01,0-.02c-.93,0-1.86,0-2.78,0q-6.64.04-5.42,6.52c.96,5.04,6.38,7.71,11.19,5.91,3.85-1.44,5.01-4.32,5.67-7.9.76-4.12.6-4.47-3.44-4.5-1.74-.01-3.48,0-5.22,0Z"/><path class="cls-2" d="m52.17,10.76c.04,2.53-2.23,4.96-4.75,5.09-2.37.12-4.92-2.41-4.94-4.89-.02-2.55,2.26-4.96,4.77-5.04,2.51-.07,4.88,2.26,4.92,4.84Z"/><rect class="cls-1" y=".03" width="101.55" height="80.83"/></g></svg>