<?xml version="1.0" encoding="UTF-8"?><svg id="Calque_2" xmlns="http://www.w3.org/2000/svg" viewBox="0 0 101.55 85.73"><defs><style>.cls-1{fill:none;}.cls-1,.cls-2{stroke-width:0px;}</style></defs><g id="Calque_1-2"><path class="cls-2" d="m12.01,81.88h-2.33v-5.97H3.66v5.97H1.32v-13.46h2.34v5.6h6.02v-5.6h2.33v13.46Z"/><path class="cls-2" d="m14.13,76.79c0-.98.19-1.86.58-2.65.39-.79.93-1.39,1.64-1.81.7-.42,1.51-.63,2.42-.63,1.35,0,2.45.43,3.29,1.3.84.87,1.3,2.02,1.36,3.46v.53c0,.99-.18,1.87-.56,2.64-.38.78-.92,1.38-1.63,1.8-.71.43-1.52.64-2.45.64-1.41,0-2.54-.47-3.39-1.41-.85-.94-1.27-2.19-1.27-3.76v-.11Zm2.25.19c0,1.03.21,1.83.64,2.42.43.58,1.02.87,1.78.87s1.35-.3,1.77-.89c.42-.59.63-1.46.63-2.6,0-1.01-.22-1.81-.65-2.4s-1.03-.89-1.77-.89-1.32.29-1.75.87c-.43.58-.65,1.45-.65,2.61Z"/><path class="cls-2" d="m31.4,80.91c-.66.78-1.6,1.17-2.81,1.17-1.08,0-1.91-.32-2.46-.95-.56-.63-.84-1.55-.84-2.75v-6.48h2.25v6.45c0,1.27.53,1.91,1.58,1.91s1.83-.39,2.21-1.17v-7.18h2.25v10h-2.12l-.06-.98Z"/><path class="cls-2" d="m38.25,81.88h-2.25v-14.2h2.25v14.2Z"/><path class="cls-2" d="m46.67,81.88c-.1-.19-.19-.5-.26-.93-.72.75-1.59,1.12-2.63,1.12s-1.82-.29-2.46-.86c-.64-.57-.95-1.28-.95-2.13,0-1.07.4-1.88,1.19-2.46s1.92-.86,3.4-.86h1.38v-.66c0-.52-.15-.93-.43-1.24-.29-.31-.73-.47-1.32-.47-.51,0-.93.13-1.26.38-.33.26-.49.58-.49.98h-2.25c0-.55.18-1.06.55-1.54.36-.48.86-.85,1.48-1.12.63-.27,1.32-.41,2.09-.41,1.17,0,2.11.29,2.8.88.7.59,1.05,1.42,1.07,2.48v4.51c0,.9.13,1.62.38,2.15v.16h-2.29Zm-2.47-1.62c.44,0,.86-.11,1.25-.32.39-.22.69-.51.88-.87v-1.89h-1.21c-.83,0-1.46.14-1.88.43s-.63.7-.63,1.23c0,.43.14.78.43,1.03.29.26.67.38,1.15.38Z"/><path class="cls-2" d="m57.87,72.97c.73-.85,1.66-1.28,2.78-1.28,2.13,0,3.21,1.22,3.25,3.65v6.54h-2.25v-6.45c0-.69-.15-1.18-.45-1.47s-.74-.43-1.32-.43c-.9,0-1.57.4-2.02,1.2v7.15h-2.25v-14.2h2.25v5.29Z"/><path class="cls-2" d="m65.75,76.79c0-.98.19-1.86.58-2.65.39-.79.93-1.39,1.64-1.81.7-.42,1.51-.63,2.42-.63,1.35,0,2.45.43,3.29,1.3.84.87,1.3,2.02,1.36,3.46v.53c0,.99-.18,1.87-.56,2.64-.38.78-.92,1.38-1.63,1.8-.71.43-1.52.64-2.45.64-1.41,0-2.54-.47-3.39-1.41-.85-.94-1.27-2.19-1.27-3.76v-.11Zm2.25.19c0,1.03.21,1.83.64,2.42.43.58,1.02.87,1.78.87s1.35-.3,1.77-.89c.42-.59.63-1.46.63-2.6,0-1.01-.22-1.81-.65-2.4s-1.03-.89-1.77-.89-1.32.29-1.75.87c-.43.58-.65,1.45-.65,2.61Z"/><path class="cls-2" d="m76.53,76.79c0-.98.19-1.86.58-2.65.39-.79.93-1.39,1.64-1.81.7-.42,1.51-.63,2.42-.63,1.35,0,2.45.43,3.29,1.3.84.87,1.3,2.02,1.36,3.46v.53c0,.99-.18,1.87-.56,2.64-.38.78-.92,1.38-1.63,1.8-.71.43-1.52.64-2.45.64-1.41,0-2.54-.47-3.39-1.41-.85-.94-1.27-2.19-1.27-3.76v-.11Zm2.25.19c0,1.03.21,1.83.64,2.42.43.58,1.02.87,1.78.87s1.35-.3,1.77-.89c.42-.59.63-1.46.63-2.6,0-1.01-.22-1.81-.65-2.4s-1.03-.89-1.77-.89-1.32.29-1.75.87c-.43.58-.65,1.45-.65,2.61Z"/><path class="cls-2" d="m96.5,76.98c0,1.55-.35,2.78-1.05,3.7-.7.92-1.65,1.38-2.83,1.38-1.1,0-1.98-.36-2.64-1.08v4.74h-2.25v-13.85h2.07l.09,1.02c.66-.8,1.56-1.2,2.69-1.2,1.22,0,2.18.46,2.87,1.36.69.91,1.04,2.17,1.04,3.79v.14Zm-2.24-.19c0-1-.2-1.79-.6-2.38-.4-.58-.97-.88-1.71-.88-.92,0-1.58.38-1.98,1.14v4.44c.41.78,1.07,1.17,2,1.17.72,0,1.28-.29,1.68-.87.4-.58.61-1.45.61-2.62Z"/><path class="cls-2" d="m55.42,6.54c-.08,3.05-2.21,5.22-5.06,5.16-2.95-.06-5.06-2.28-4.98-5.24.08-2.83,2.53-5.14,5.27-4.98,2.64.15,4.84,2.48,4.77,5.05Z"/><path class="cls-2" d="m57.82,23.65c-2.22-.39-4.06-.74-5.48,2.05-1.11,2.17-5.36.81-6.36-1.62-.36-.88-1.4-2.06-2.19-2.1-3.68-.18-7.39-.13-11.07.09-1.44.09-2.84.83-4.26,1.27,0,.49.01.99.02,1.48,4.42.81,8.85,1.61,13.27,2.42-5.52.22-10.9-.06-15.7-2.89-.02-.47-.05-.94-.07-1.41,2.38-.59,4.74-1.45,7.16-1.7,3.05-.31,6.15-.04,9.22-.2,1.18-.06,2.34-.64,3.51-.99-.74-1.27-1.26-2.76-2.27-3.76-2.52-2.49-5.37-4.64-7.88-7.14-1.1-1.09-1.97-2.61-2.39-4.1-.25-.88.33-2.3,1.02-3.02.3-.32,2.08.2,2.68.83,1.34,1.41,2.26,3.22,3.55,4.69,6.68,7.65,14.78,8.54,24.16,2.91,1.79-1.07,4.02-4.09,5.91-1.16,1.99,3.09-1.73,4.21-3.61,5.15-3.37,1.68-7.1,2.62-10.64,3.99-1.14.44-2.14,1.26-3.21,1.91.96.7,1.93,1.39,2.89,2.09.56.41,1.11.84,1.66,1.26l.07-.04Z"/><path class="cls-2" d="m57.74,23.69l5.41.86c.05.57.11,1.14.16,1.71-1.57.46-3.1,1.09-4.7,1.36-5.79.98-6.27,1.28-5.41,7.12.59,3.98,2.11,7.81,2.87,11.77.27,1.4-.48,2.99-.76,4.49-1.15-.87-2.79-1.49-3.34-2.64-1.2-2.53-1.84-5.32-2.71-8-.35-1.07-.69-2.14-1.04-3.22-.51,0-1.02,0-1.53,0-.48,3.37-.83,6.77-1.5,10.1-.29,1.44-1.07,3.79-1.91,3.92-2.69.41-2.52-2.11-2.62-3.85-.29-5.28.88-10.24,3.47-14.89.78-1.4,1.18-3,1.32-5.6h15.3c.11-.47.22-.94.33-1.41-1.08-.59-2.15-1.18-3.24-1.76-.01.01-.09.05-.09.05Z"/><path class="cls-2" d="m62.37,2.54c-2.05.79-3.77,1.45-5.61,2.16,1.11-4.26,2.57-4.87,5.61-2.16Z"/><rect class="cls-1" width="101.55" height="80.83"/></g></svg>