<?xml version="1.0" encoding="UTF-8"?><svg id="Calque_2" xmlns="http://www.w3.org/2000/svg" viewBox="0 0 102.72 82.71"><defs><style>.cls-1{fill:none;}.cls-1,.cls-2{stroke-width:0px;}</style></defs><g id="Calque_1-2"><path class="cls-2" d="m3.03,69.06l3.88,10.32,3.87-10.32h3.02v13.46h-2.33v-4.44l.23-5.94-3.98,10.38h-1.67l-3.97-10.37.23,5.93v4.44H0v-13.46h3.03Z"/><path class="cls-2" d="m22.42,81.55c-.66.78-1.6,1.17-2.81,1.17-1.09,0-1.91-.32-2.46-.95-.56-.63-.84-1.55-.84-2.76v-6.48h2.25v6.46c0,1.27.53,1.9,1.58,1.9s1.83-.39,2.21-1.17v-7.19h2.25v10.01h-2.12l-.06-.98Z"/><path class="cls-2" d="m32.49,79.81c0-.4-.17-.71-.49-.92-.33-.21-.88-.39-1.64-.55-.76-.16-1.4-.36-1.91-.61-1.12-.54-1.68-1.33-1.68-2.36,0-.86.36-1.58,1.09-2.16.73-.58,1.65-.87,2.77-.87,1.2,0,2.16.3,2.9.89.74.59,1.1,1.36,1.1,2.3h-2.25c0-.43-.16-.79-.48-1.08-.32-.29-.75-.43-1.28-.43-.49,0-.9.11-1.21.34-.31.23-.47.53-.47.92,0,.35.15.61.44.8.29.19.88.38,1.76.58.88.19,1.57.42,2.08.69.5.27.88.59,1.12.97s.37.83.37,1.37c0,.9-.37,1.63-1.12,2.19-.75.56-1.72.84-2.93.84-.82,0-1.55-.15-2.19-.44s-1.14-.7-1.5-1.22c-.36-.52-.54-1.08-.54-1.67h2.18c.03.53.23.94.6,1.22.37.29.86.43,1.47.43s1.04-.11,1.35-.34c.31-.22.46-.52.46-.88Z"/><path class="cls-2" d="m40.77,80.92c.56,0,1.03-.16,1.4-.49.37-.33.57-.73.59-1.21h2.12c-.02.62-.22,1.2-.58,1.74-.36.54-.86.97-1.48,1.28s-1.29.47-2.02.47c-1.4,0-2.51-.45-3.33-1.36s-1.23-2.16-1.23-3.75v-.23c0-1.52.41-2.74,1.22-3.66.81-.92,1.92-1.37,3.33-1.37,1.19,0,2.16.35,2.91,1.04s1.14,1.6,1.18,2.73h-2.12c-.02-.57-.22-1.04-.59-1.42-.37-.37-.83-.55-1.4-.55-.73,0-1.29.26-1.68.79s-.59,1.33-.6,2.4v.36c0,1.09.2,1.89.59,2.43.39.53.96.8,1.7.8Z"/><path class="cls-2" d="m52.63,81.55c-.66.78-1.6,1.17-2.81,1.17-1.09,0-1.91-.32-2.46-.95-.56-.63-.84-1.55-.84-2.76v-6.48h2.25v6.46c0,1.27.53,1.9,1.58,1.9s1.83-.39,2.21-1.17v-7.19h2.25v10.01h-2.12l-.06-.98Z"/><path class="cls-2" d="m59.49,82.53h-2.25v-14.2h2.25v14.2Z"/><path class="cls-2" d="m67.91,82.53c-.1-.19-.18-.5-.26-.93-.71.75-1.59,1.12-2.63,1.12s-1.83-.29-2.46-.86c-.63-.57-.95-1.28-.95-2.13,0-1.07.4-1.88,1.19-2.46s1.92-.86,3.4-.86h1.38v-.66c0-.52-.15-.93-.44-1.24-.29-.31-.73-.47-1.32-.47-.51,0-.93.13-1.26.38-.33.26-.49.58-.49.98h-2.25c0-.55.18-1.06.54-1.54.36-.48.86-.85,1.48-1.12.63-.27,1.32-.41,2.09-.41,1.17,0,2.11.29,2.8.88s1.05,1.42,1.07,2.48v4.51c0,.9.13,1.62.38,2.16v.16h-2.29Zm-2.47-1.62c.44,0,.86-.11,1.25-.32s.69-.5.88-.87v-1.89h-1.21c-.83,0-1.46.15-1.88.44-.42.29-.63.7-.63,1.23,0,.43.14.78.43,1.03.29.26.67.38,1.15.38Z"/><path class="cls-2" d="m74.99,70.09v2.43h1.77v1.67h-1.77v5.58c0,.38.08.66.23.83.15.17.42.25.81.25.26,0,.52-.03.79-.09v1.74c-.51.14-1,.21-1.48.21-1.73,0-2.59-.95-2.59-2.86v-5.67h-1.65v-1.67h1.65v-2.43h2.25Z"/><path class="cls-2" d="m78.48,69.92c0-.34.11-.63.33-.86.22-.23.53-.34.94-.34s.72.11.94.34c.22.23.33.51.33.86s-.11.62-.33.85c-.22.22-.54.34-.94.34s-.72-.11-.94-.34c-.22-.23-.33-.51-.33-.85Zm2.39,12.6h-2.25v-10.01h2.25v10.01Z"/><path class="cls-2" d="m82.89,77.43c0-.98.19-1.86.58-2.65.39-.79.93-1.39,1.64-1.81.7-.42,1.51-.63,2.42-.63,1.35,0,2.45.43,3.29,1.3s1.3,2.02,1.36,3.46v.53c0,.99-.18,1.87-.56,2.64-.38.78-.92,1.38-1.63,1.8-.71.42-1.52.64-2.45.64-1.41,0-2.54-.47-3.39-1.41-.85-.94-1.27-2.19-1.27-3.76v-.11Zm2.25.19c0,1.03.21,1.84.64,2.42.42.58,1.02.87,1.78.87s1.35-.3,1.77-.89.63-1.46.63-2.6c0-1.01-.22-1.81-.65-2.4s-1.02-.89-1.77-.89-1.32.29-1.75.87c-.43.58-.65,1.45-.65,2.61Z"/><path class="cls-2" d="m96.18,72.52l.07,1.16c.74-.89,1.71-1.34,2.91-1.34,2.08,0,3.14,1.19,3.18,3.58v6.61h-2.25v-6.48c0-.63-.14-1.11-.41-1.41-.27-.31-.72-.46-1.34-.46-.91,0-1.58.41-2.03,1.23v7.12h-2.25v-10.01h2.12Z"/><path class="cls-2" d="m46.02,16.45c2.96,4.9,1.78,9.28-2.27,14.06,2.65.27,4.3.48,5.97.61,7.59.58,15.18,1.18,22.78,1.68,3.92.26,5.27,2.37,5.67,6.09.32,2.93,1.8,5.73,2.4,8.66.23,1.14-.56,2.49-.88,3.75-2.2-.76-4.71-1.12-6.49-2.45-.91-.67-.82-3.11-.67-4.7.45-4.74-1.98-6.5-6.29-6.61-7.63-.2-15.26-.41-22.9-.61-1.65-.04-3.34.14-4.93-.17-2.9-.58-4.35-2.04-2.3-5.03,1.61-2.34,3.23-4.68,4.66-7.13,2.01-3.43,1.19-7.21-1.81-9.11-4.57-2.89-5.76-7.86-2.88-11.95,2.73-3.87,8.22-4.67,11.87-1.73,4.12,3.32,4.27,8.51.36,12.53-.62.64-1.31,1.21-2.32,2.14Z"/><path class="cls-2" d="m63.32,50.81h-7.54c-.09-.56-.26-.89-.17-1.12.74-1.93,1.54-3.84,2.31-5.76-2.02-.54-4.01-1.3-6.07-1.56-2.21-.27-4.49-.21-6.72-.02-1.37.12-3.75.62-3.84,1.22-.22,1.52.54,3.2,1.01,4.79.19.64.66,1.2,1.36,2.41h-9.45c4.16-4.43,5.9-8.19-3.17-9.75.71-.36,1.42-.73,2.12-1.09h32.52c-3.91,2.95-7.82,5.37-.98,10.31l-1.39.56Z"/><path class="cls-2" d="m27.62,24.38c3.31-.1,6.35,2.86,6.39,6.23.04,3.3-3,6.32-6.34,6.3-3.04-.01-6.04-2.94-6.18-6.02-.15-3.28,2.8-6.42,6.13-6.51Z"/><rect class="cls-1" x="1.18" y=".64" width="101.55" height="80.83"/></g></svg>