<?xml version="1.0" encoding="UTF-8"?><svg id="Calque_2" xmlns="http://www.w3.org/2000/svg" viewBox="0 0 113.37 85.25"><defs><style>.cls-1{fill:#fd5700;stroke-width:0px;}</style></defs><g id="Calque_1-2"><path class="cls-1" d="m44.28,54.32s3.67.13,3.67,2.53l1.39.89-.85.51s.69,1.82,0,2.27-1.08.54-1.08.54l-.69,1.63s1.38-.15,1.92.15,2.61,1.82,2.61,1.82c0,0,2.56.94,3.35,1.08s6.55.15,6.75-.15.79-1.33.99-1.43,1.87-1.97,2.27-2.37c0,0,.05.44,0,.64s-.39.69-.39.69l.54-.15v.34s1.03-.25.3.44-1.18.94-1.18.94c0,0-.3,1.03-.49,1.08l.59.25s-.74.64-.99.64c0,0-.34.84-.49.89s-.25.44-2.27,1.08-5.86,2.02-6.16,2.17.1.3-.79.25-3.2-.74-3.2-.74c0,0-.1.84.39,1.72s1.28,2.02,1.33,2.32c0,0-.05.44,1.18-.3s6.46-4.43,8.03-4.63,2.46.44,3.3,1.18,4.19,3.99,5.32,4.73,3.25,2.07,3.25,2.07c0,0,0-.25,1.23-.44s3.35-.2,4.39-1.72c1.03-1.53,1.08.1,1.08.1,0,0-.15,2.76-1.13,3.65s-2.07,2.12-2.17,2.61-1.63,1.92-1.97,1.68-2.22-2.51-2.22-2.51c0,0,.2-.44-.69-.94s-1.18-.54-1.18-.54l-.49.49s.44.44-.54,1.08-2.27,1.72-2.27,1.72c0,0-.74.1-1.28-1.18s-2.12-4.29-2.37-4.63-.84-1.82-.84-2.02.1-.64.1-.64c0,0-.59-.34-.74-.1s-.69.54-2.12,2.46c-1.43,1.92-4.93,5.08-5.27,5.22s-1.68,1.58-3.5,1.48-4.34.05-4.58-1.18-.49-3.06-.39-3.5-.25-1.33-.44-1.87-.64-1.38-1.03-2.12-2.76-3.7-2.76-6.5.05-3.55.54-3.99.59-1.48.79-1.72.54-.69.54-.69c0,0,.54-.89-.34-.99s-1.43-.94-1.68-1.58-.64.49-.64.49c-.48-.71-.06-.27,1.28,3.2.3.78-.59.59-.59.59,0,0-2.22-1.77-2.37-4.14s-.25-2.17,0-2.76.44-2.17,2.02-2.56,2.56.49,2.56.49l.48-.03Z"/><path class="cls-1" d="m86.63,66.13l-.69.3c.69-.3,3.94.39,3.94.39.1-.79,2.76-1.48,2.76-1.48,0,0-2.27.1-3.15.3-.89.2-2.86.49-2.86.49Z"/><path class="cls-1" d="m93.37,70.59c.06-.02.1-.03.12-.03,0,0,0,0-.01,0-.1.02-.1.02-.1.03Z"/><path class="cls-1" d="m86.63,66.13l-.69.3c.69-.3,3.94.39,3.94.39.1-.79,2.76-1.48,2.76-1.48,0,0-2.27.1-3.15.3-.89.2-2.86.49-2.86.49Z"/><path class="cls-1" d="m93.37,70.59c.06-.02.1-.03.12-.03,0,0,0,0-.01,0-.1.02-.1.02-.1.03Z"/><path class="cls-1" d="m102.45,68.34s-.15-3.5-2.02-5.32l-1.48-1.18-.2-.89s.2-.69.05-.99c0,0,1.13-.39.99-1.92-.15-1.53-.25-2.91-2.96-3.45,0,0-1.38-1.08-2.37.2,0,0-1.13.44-1.53,1.87,0,0,.25.25-.2.64-.44.39-1.08.49-.84.79.25.3.15.99.15.99v1.03s-.54,1.08,0,1.33c.54.25,2.12.2,2.32.49s-.1.74-.1.74c0,0-1.77.89-1.97,1.48,0,0-2.66.44-3.15.74,0,0-2.17-.44-2.76-.3-.59.15-1.48.2-2.07.15s-3.01-.25-3.3-.34c-.3-.1-1.03-.2-1.23-.49-.2-.3-.2-.54-1.63-.74-1.43-.2-1.77-.89-2.27-.69-.49.2,0,.79,0,.79l1.33.74-.25.54s1.28,1.23,1.92,1.68c.64.44,2.07,1.58,2.51,1.18,0,0,5.22,3.45,6.21,3.5.99.05,2.22.39,3.4.05.48-.14.9-.2,1.24-.23.37-.03.65-.02.83-.04-.48.18-1.25.53-1.52,1.05-.44.84-1.18.84-1.18.84l-.59.39s-7.44-3.99-8.53-4.24c-1.08-.25-1.63-.2-2.46.69-.84.89-2.61,2.27-2.61,2.27l-4.09,3.25-1.82,1.23,3.01,2.51,4.93-1.97.94-2.41,1.18-.54,1.43.69-.59,1.87.84.25s.99,1.38,1.87,1.87c.89.49,1.63.34,1.87.99.25.64,3.55,3.15,3.55,3.15,0,0,5.81,2.27,7.39.34s1.48-2.37,1.48-2.37c0,0,.79-.74,1.03-1.77s3.01-5.17,3.2-6.31.74-1.92.05-4.14Zm-12.57-1.53s-3.25-.69-3.94-.39l.69-.3s1.97-.3,2.86-.49c.89-.2,3.15-.3,3.15-.3,0,0-2.66.69-2.76,1.48Zm3.49,3.78s0,0,.1-.03c0,0,0,0,.01,0-.01,0-.05.01-.12.03Z"/><path class="cls-1" d="m34.66,16.01c-.43.11-.86.18-1.28.21,0,.02,0,.04,0,.07-.33.1-.7.22-1.12.35-.24-.15-.57-.11-.83,0h0c-.39-.07-.98-.08-1.18.09-.31-.02-.49.13-.68.31-.48.08-.85,0-1.28.39-.21.19-.34.37-.33.56-2.98.92-6.37,1.98-8.95,2.79-.39-.1-1.02-.15-1.3-.08-.15-.13-.3-.15-.57.03-.11.07-.21.18-.26.3-.41.05-.47.27-.57.6-.47.15-.83.26-1.07.34-.93-1.81-2.96-2.87-4.85-2.41-2.05.5-3.19,2.59-2.63,4.74-.17.1-.28.25-.28.4,0,.04,0,.07.02.11.07.17.28.27.53.26.88,1.93,2.98,3.07,4.94,2.59,1.27-.31,2.19-1.23,2.57-2.4.05,1.42.05,2.87.29,4.28.06.37.21.81.4,1.19.24,1.83.86,3.86,1.64,5.67.22.53.15.83.16,1.31-.23.84-.97,1.76-1.16,2.63-.15.7-.15,1.53.11,2.26-.02.78.04,1.59.34,2.34.26.64.75,1.19.99,1.84.46,1.25.55,2.51,1.11,3.76.22.49.28.98.36,1.48-.1.29-.1.46-.1.69h-.04c-.23.63-.96.92-1.09,1.67-.1.6-.16,1.17-.31,1.77-.16.66-.03,1.35-.05,2.01-.02.69-.18,1.3-.32,1.98-.11.52-.28,1.5.15,1.96-.14,1.55-.18,3.19-.15,4.72,0,.35.12.67.23,1.01h.02c.25.74.68,1.37.93,2.11.29,1.36.55,2.75,1.02,4.07.41,1.13.88,2.24,1.04,3.42.06.42.23.93.27,1.39-.73.32-.51.8-.95,1.32-.37.43-.93.58-1.46.83-.55.25-1.11.48-1.68.69-.5.18-1.29.22-1.67.56-.34.3-.22,1.24.3,1.12.51.42,1.21.3,1.98.3.57,0,1.15.04,1.74,0,1.24-.08,2.47-.22,3.69-.28.34-.02.98.05,1.47,0,.07-.07.14-.14.21-.21.04-.04.19-.03.37,0h0c-.12.13-.34.19-.59.21-.73.79-.64,1.5.23,1.76.79.23,1.23.22,2.02.12,1.22-.15,1.81-.15,2.56-.37.72-.21,1.53-.41,2.21-.72.69-.32.62-.81.18-1.25.02-.9-.1-2.64-.95-2.65-.08-.63-.18-1.25-.27-1.85-.26-1.81.05-3.54.03-5.35,0-.9-.21-1.68-.55-2.53-.15-.38-.26-.81-.45-1.16-.27-.5-.87-1.06-1.19-1.8-.03-.06-.05-.12-.07-.19-.09-.23-.18-.46-.23-.69-.35-1.57.4-3.48.78-5.06,1.01-.24,1.2-.67,1.11-1.53-.16-1.62-.08-3.32,0-4.94.09-1.87-.93-3.54-1.89-4.55-.08-.36-.17-.71-.42-1.08-1.16-1.75-.88-4.47-.55-6.49.64-1.32,1.17-2.49,1.64-3.88,1.07-1.45,1.32-3.54,1.34-5.23.31-.57.58-1.04.65-1.77.07-.82.26-1.67.56-2.43h-.01c.08-.15.17-.33.21-.46.1-.34.06-.76.05-1.12.08-.29.21-.59.27-.86.07-.33.12-.68.14-1.04h-.01c.03-.5-.07-.85-.12-1.33-.16-1.5-.31-3.11-.13-4.59.25-.14.43-.28.46-.65.02-.24-.13-.33-.02-.61.21-.54.44-.93.64-1.5l-.03-.07c.25-.08.48-.15.7-.22.01.03.03.05.04.08.33-.52.76-.98,1.21-1.4-.1.03-.19.06-.29.09Zm-7.2,58.75c.33,1.18.45,2.38.69,3.56.09.44.14.95.14,1.44-.85.07-.65,1.27-1.03,1.75-.35.45-.78.89-1.3,1.18,0-.29-.15-.62-.28-.87-.02-.78-.07-2.45-1.1-2.37-.21-.75-.35-1.52-.46-2.27-.13-.9-.29-1.79-.24-2.69.04-.81.22-1.59.16-2.41-.14-1.74-1.39-3.71-1.55-5.05,0-.24.03-.49.1-.75.13-.52.38-.98.61-1.49.23.52.43,1.01.7,1.51.07.83.17,1.77.76,2.46.48.4.87,1,1.19,1.58.32.86.48,1.71.76,2.55.22.64.66,1.21.84,1.87Zm1.66-51.12c-.23.86-.45,1.76-.45,2.67,0,.4,0,.64-.15,1.02-.02.04-.03.09-.05.13-.26-.08-.56-.12-.65-.34.02.08,0,.14-.03.26-.06-.04-.16-.11-.2-.15-.09.06,0,.1-.01.15-.05-.02-.11-.08-.17-.09.03.06.03.11.06.17,0,.02.02.04.03.06-.19-.02-.37-.05-.51-.09-1.06-.09-2.18-.25-3.15.62-.4.03-1.16,0-1.32.15-.17.16-.07.49.03.72-.32.34-.76.17-.67.77-.29.06-.48.24-.47.48-.15.38-.54.65-.37,1.07.16.38.66.54.95.81.54.49.24,1.41.08,2.05-.09.36-.23.54-.43.74-.56-.11-1.07-.33-1.45-.73-.34-.92-.68-1.12-.9-1.82-.22-.68-.2-1.37-.37-2.05-.15-.61-.38-1.2-.54-1.81-.18-.7-.55-1.36-.73-2.06-.19-.74-.3-1.46-.32-2.17,0-.01,0-.03,0-.04.02,0,.03-.02.04-.03.16-.12.33-.23.47-.37.19-.21.28-.47.53-.65.27-.19.62-.2.85-.45.29-.33.19-.63.16-1.01,2.84-.87,6.31-1.93,9.33-2.86.32.43.28.99.7,1.32.38,1.24-.05,2.27-.3,3.52h.01Z"/><path class="cls-1" d="m36.52,48.25c-.55,0-1-.45-1-1v-18.11c0-.55.45-1,1-1h4.16c.55,0,1.45.06,1.99.12,0,0,2.76.34,3.86,1.28s1.65,2.3,1.65,4.11c0,.99-.22,1.85-.66,2.6s-1,1.11-1,1.11c-.46.3-.44.74.06.97,0,0,.71.34,1.23,1.13.52.78.78,1.74.78,2.87,0,1.93-.54,3.4-1.62,4.39s-3.62,1.37-3.62,1.37c-.54.08-1.44.15-1.99.15h-4.83Zm2.62-12.69c0,.55.45,1,1,1h.68c.55,0,1.43-.14,1.95-.3,0,0,1.79-.57,1.79-2.2,0-.91-.23-1.57-.69-1.97-.46-.4-1.2-.49-1.2-.49-.55-.06-1.44-.12-1.99-.12h-.53c-.55,0-1,.45-1,1v3.07Zm1,3.93c-.55,0-1,.45-1,1v3.43c0,.55.45,1,1,1h1.1c.55,0,1.44-.07,1.99-.15,0,0,.53-.08,1.01-.55.48-.46.72-1.11.72-1.93,0-1.84-1.57-2.44-1.57-2.44-.51-.2-1.38-.36-1.93-.36h-1.32Z"/><path class="cls-1" d="m63.6,28.13c.55,0,1,.45,1,1v11.25c0,.55-.07,1.44-.15,1.99,0,0-.45,2.95-1.65,4.23-1.2,1.28-2.85,1.92-4.93,1.92s-3.68-.62-4.89-1.86c-1.21-1.24-1.68-4.14-1.68-4.14-.09-.54-.16-1.44-.16-1.99v-11.4c0-.55.45-1,1-1h1.62c.55,0,1,.45,1,1v11.27c0,.55.05,1.45.12,1.99,0,0,.16,1.28.71,1.89s1.31.9,2.29.9c2.04,0,2.82-2.71,2.82-2.71.15-.53.28-1.41.28-1.96v-11.39c0-.55.45-1,1-1h1.63Z"/><path class="cls-1" d="m68.57,48.25c-.55,0-1-.45-1-1v-18.11c0-.55.45-1,1-1h3.41c.55,0,1.45.06,1.99.13,0,0,1.94.26,3.16,1.06,1.22.8,2.17,1.93,2.85,3.4.68,1.47.93,4.01.93,4.01.05.55.1,1.2.1,1.46s-.04.91-.09,1.46c0,0-.24,2.54-.91,3.99-.67,1.46-1.62,2.58-2.84,3.38-1.22.8-3.15,1.08-3.15,1.08-.54.08-1.44.14-1.99.14h-3.44Zm3.51-16.76c-.49,0-.89.45-.89,1v11.43c0,.55.39,1,.88,1s1.32-.09,1.85-.21c0,0,1.52-.32,2.27-1.38s1.03-3.55,1.03-3.55c.06-.55.11-1.23.11-1.53s-.05-.98-.1-1.53c0,0-.27-2.6-1.01-3.65-.74-1.05-2.27-1.38-2.27-1.38-.54-.11-1.38-.21-1.87-.21Z"/><path class="cls-1" d="m84.63,48.25c-.55,0-1-.45-1-1v-18.11c0-.55.45-1,1-1h3.41c.55,0,1.45.06,1.99.13,0,0,1.94.26,3.16,1.06,1.22.8,2.17,1.93,2.85,3.4.68,1.47.93,4.01.93,4.01.05.55.1,1.2.1,1.46s-.04.91-.09,1.46c0,0-.24,2.54-.91,3.99-.67,1.46-1.62,2.58-2.84,3.38-1.22.8-3.15,1.08-3.15,1.08-.54.08-1.44.14-1.99.14h-3.44Zm3.51-16.76c-.49,0-.89.45-.89,1v11.43c0,.55.39,1,.88,1s1.32-.09,1.85-.21c0,0,1.52-.32,2.27-1.38s1.03-3.55,1.03-3.55c.06-.55.11-1.23.11-1.53s-.05-.98-.1-1.53c0,0-.27-2.6-1.01-3.65-.74-1.05-2.27-1.38-2.27-1.38-.54-.11-1.38-.21-1.87-.21Z"/><path class="cls-1" d="m105.39,36.27c.2.51.54.51.75,0l2.91-7.21c.21-.51.82-.93,1.37-.93h1.96c.55,0,.82.41.59.91l-4.95,11c-.23.5-.41,1.36-.41,1.91v5.29c0,.55-.45,1-1,1h-1.68c-.55,0-1-.45-1-1v-5.29c0-.55-.18-1.41-.41-1.91l-4.95-11c-.23-.5.04-.91.59-.91h1.97c.55,0,1.17.42,1.37.93l2.89,7.21Z"/><path class="cls-1" d="m9.85,15.11c0-.78-.24-1.38-.72-1.8-.48-.42-1.35-.86-2.61-1.33-1.26-.46-2.1-.91-2.1-.91-.49-.26-1.21-.78-1.6-1.16,0,0-2.27-2.2-2.27-4.29,0-1.09.27-2.06.8-2.91.54-.85,1.3-1.52,2.31-2,1-.48,2.13-.72,3.37-.72s2.37.26,3.36.78c.98.52,1.74,1.25,2.29,2.2.54.95.7,2.24.7,2.24.06.55-.33.99-.88.99h-1.62c-.55,0-1.07-.44-1.15-.99,0,0-.1-.65-.61-1.16s-1.22-.77-2.14-.77-1.57.21-2.06.64c-.49.43-.74.99-.74,1.69,0,.65.29,1.2.86,1.64.58.44,1.61.87,1.61.87.51.21,1.34.56,1.84.78,0,0,2.65,1.18,3.59,2.23s1.41,2.36,1.41,3.92c0,1.74-.58,3.11-1.73,4.1-1.15.99-2.7,1.48-4.65,1.48-1.35,0-2.58-.28-3.69-.85s-1.96-1.34-2.54-2.33c-.58-.99-.76-2.43-.76-2.43-.07-.55.33-.99.88-.99h1.63c.55,0,1.15.42,1.33.94,0,0,.83,2.38,3.15,2.38.86,0,1.53-.2,2.02-.6.48-.4.72-.96.72-1.68Z"/><path class="cls-1" d="m20.55,13.3c-.55,0-1,.45-1,1v5.09c0,.55-.45,1-1,1h-1.62c-.55,0-1-.45-1-1V1.28c0-.55.45-1,1-1h4.86c.55,0,1.45.05,1.99.11,0,0,1.49.17,2.49.72,1,.55,1.77,1.34,2.31,2.35s.81,2.18.81,3.47c0,1.97-.59,3.52-1.77,4.66-1.18,1.14-3.91,1.55-3.91,1.55-.54.08-1.44.15-1.99.15h-1.17Zm-1-4.36c0,.55.45,1,1,1h1.23c.55,0,1.44-.07,1.99-.15,0,0,.7-.11,1.2-.62.5-.52.75-1.25.75-2.21s-.25-1.78-.76-2.39c-.51-.61-1.12-.74-1.12-.74-.54-.11-1.43-.2-1.98-.2h-1.32c-.55,0-1,.45-1,1v4.31Z"/><path class="cls-1" d="m56.81,13.94c-.22-.5-.85-.92-1.4-.92h-.83c-.55,0-1,.45-1,1v5.36c0,.55-.45,1-1,1h-1.56c-.55,0-1-.45-1-1V1.28c0-.55.45-1,1-1h4.41c.55,0,1.45.07,1.99.15,0,0,2.62.38,3.73,1.44,1.11,1.06,1.66,2.56,1.66,4.49,0,1.37-.25,2.52-.76,3.43-.51.92-1.5,1.61-1.5,1.61-.45.32-.63.99-.4,1.49l2.91,6.4c.23.5.41.95.41,1.01s-.45.1-1,.1h-1.82c-.55,0-1.18-.41-1.4-.92l-2.43-5.53Zm-3.24-5.27c0,.55.45,1,1,1h.87c.55,0,1.44-.07,1.99-.16,0,0,.6-.1,1.09-.63.49-.53.73-1.26.73-2.19s-.23-1.69-.69-2.24c-.46-.54-1.14-.65-1.14-.65-.54-.09-1.44-.16-1.99-.16h-.86c-.55,0-1,.45-1,1v4.04Z"/><path class="cls-1" d="m77.91,2.63c0,.55-.45,1-1,1h-3.29c-.55,0-1,.45-1,1v14.76c0,.55-.45,1-1,1h-1.56c-.55,0-1-.45-1-1V4.63c0-.55-.45-1-1-1h-3.22c-.55,0-1-.45-1-1v-1.36c0-.55.45-1,1-1h12.06c.55,0,1,.45,1,1v1.36Z"/><path class="cls-1" d="m39.95,3.04c-4.29,0-7.77,4.65-7.77,10.38s3.48,10.38,7.77,10.38,7.77-4.65,7.77-10.38-3.48-10.38-7.77-10.38Zm0,17.23c-2.5,0-4.53-3.12-4.53-6.96s2.03-6.96,4.53-6.96,4.53,3.12,4.53,6.96-2.03,6.96-4.53,6.96Z"/></g></svg>